<svg width="37" height="35" viewBox="0 0 37 35" fill="none" xmlns="http://www.w3.org/2000/svg">
<path d="M18.6252 7V0H18.282V7H18.6252Z" fill="#F5F8FF"/>
<path d="M30.1247 3.49999L25.6252 8.8623L25.3623 8.64174L29.8618 3.27942L30.1247 3.49999Z" fill="#F5F8FF"/>
<path d="M30.0002 14.875L36.0624 11.375L35.8908 11.0778L29.8286 14.5778L30.0002 14.875Z" fill="#F5F8FF"/>
<path d="M7.25016 21H0.250159V20.6569H7.25016V21Z" fill="#F5F8FF"/>
<path d="M37.0002 21H30.0002V20.6569H37.0002V21Z" fill="#F5F8FF"/>
<path d="M8.34432 25.375L2.00016 28.3333L1.85515 28.0223L8.1993 25.064L8.34432 25.375Z" fill="#F5F8FF"/>
<path d="M5.10801 33.3574L10.8421 29.3424L10.6453 29.0613L4.91119 33.0763L5.10801 33.3574Z" fill="#F5F8FF"/>
<path d="M10.7502 9.56221L7.25016 3.50002L6.953 3.67159L10.453 9.73377L10.7502 9.56221Z" fill="#F5F8FF"/>
<path d="M0.250172 11.375L6.82802 13.7691L6.71066 14.0916L0.132812 11.6974L0.250172 11.375Z" fill="#F5F8FF"/>
<path d="M35.7031 26.8941L29.1252 24.5L29.0079 24.8224L35.5857 27.2166L35.7031 26.8941Z" fill="#F5F8FF"/>
<path d="M26.5002 28.875L33.078 31.2691L32.9607 31.5916L26.3828 29.1974L26.5002 28.875Z" fill="#F5F8FF"/>
<path fill-rule="evenodd" clip-rule="evenodd" d="M28.6877 19.25C28.6877 23.4183 26.8911 27.0629 23.8752 29.0437L23.8752 32.7524C23.8752 33.5105 23.2606 34.125 22.5026 34.125H14.7477C13.9897 34.125 13.3752 33.5105 13.3752 32.7524V30.6954L13.3698 30.695L13.3752 30.6181V29.3556C9.91624 27.4626 7.68767 23.6477 7.68767 19.25C7.68767 12.9678 12.2354 7.875 18.421 7.875C24.6066 7.875 28.6877 12.9678 28.6877 19.25ZM22.1823 31.3112H15.5948L23.0006 31.8291L22.9767 32.1714L14.0614 31.548V32.079L23.0006 32.7041L22.9767 33.0464L14.0614 32.423V32.7524C14.0614 32.9364 14.1339 33.1035 14.2518 33.2268L14.2741 32.9077L21.8679 33.4387H22.5026C22.8816 33.4387 23.1889 33.1314 23.1889 32.7524V31.3112H22.9752L22.9713 31.3664L22.1823 31.3112ZM16.9488 33.4387L14.277 33.2519C14.3999 33.3677 14.5655 33.4387 14.7477 33.4387H16.9488ZM18.275 29.5098C23.935 29.5098 27.6693 24.9009 27.6693 19.2157C27.6693 13.5304 23.935 8.92156 18.275 8.92156C12.615 8.92156 8.45367 13.5304 8.45367 19.2157C8.45367 24.9009 12.615 29.5098 18.275 29.5098Z" fill="#F5F8FF"/>
<path d="M20.3752 35H16.8752V34.3137H20.3752V35Z" fill="#F5F8FF"/>
</svg>
