<svg width="72" height="72" viewBox="0 0 72 72" fill="none" xmlns="http://www.w3.org/2000/svg">
<path d="M36.0857 20.7V10.5H35.5857V20.7H36.0857Z" fill="#F5F8FF"/>
<path d="M52.8421 15.6L46.2857 23.4137L45.9027 23.0923L52.4591 15.2786L52.8421 15.6Z" fill="#F5F8FF"/>
<path d="M52.6607 32.175L61.4942 27.075L61.2442 26.642L52.4107 31.742L52.6607 32.175Z" fill="#F5F8FF"/>
<path d="M19.5107 41.1001H9.31064V40.6001H19.5107V41.1001Z" fill="#F5F8FF"/>
<path d="M62.8607 41.1001H52.6607V40.6001H62.8607V41.1001Z" fill="#F5F8FF"/>
<path d="M21.105 47.475L11.8606 51.7857L11.6493 51.3326L20.8937 47.0219L21.105 47.475Z" fill="#F5F8FF"/>
<path d="M16.3892 59.1065L24.7446 53.2561L24.4578 52.8465L16.1024 58.697L16.3892 59.1065Z" fill="#F5F8FF"/>
<path d="M24.6107 24.4335L19.5107 15.6L19.0776 15.85L24.1777 24.6835L24.6107 24.4335Z" fill="#F5F8FF"/>
<path d="M9.31066 27.075L18.8955 30.5636L18.7245 31.0335L9.13965 27.5449L9.31066 27.075Z" fill="#F5F8FF"/>
<path d="M60.9706 49.6887L51.3858 46.2L51.2148 46.6699L60.7996 50.1585L60.9706 49.6887Z" fill="#F5F8FF"/>
<path d="M47.5607 52.5751L57.1456 56.0637L56.9746 56.5335L47.3897 53.0449L47.5607 52.5751Z" fill="#F5F8FF"/>
<path fill-rule="evenodd" clip-rule="evenodd" d="M50.7482 38.55C50.7482 44.6238 48.1303 49.9345 43.7357 52.8209L43.7357 58.225C43.7357 59.3296 42.8402 60.225 41.7357 60.225H30.4356C29.3311 60.225 28.4356 59.3296 28.4356 58.225V55.2276L28.4278 55.2271L28.4357 55.1149V53.2753C23.3955 50.517 20.1482 44.9582 20.1482 38.55C20.1482 29.3959 26.7749 21.975 35.7882 21.975C44.8015 21.975 50.7482 29.3959 50.7482 38.55ZM41.2689 56.125H31.6701L42.4614 56.8796L42.4265 57.3784L29.4356 56.47V57.2437L42.4614 58.1546L42.4265 58.6534L29.4356 57.745V58.225C29.4356 58.4931 29.5412 58.7366 29.713 58.9162L29.7455 58.4512L40.8108 59.225H41.7357C42.288 59.225 42.7357 58.7773 42.7357 58.225V56.125H42.4243L42.4187 56.2054L41.2689 56.125ZM33.643 59.225L29.7498 58.9528C29.9289 59.1215 30.1702 59.225 30.4356 59.225H33.643ZM35.5755 53.5C43.8229 53.5 49.2643 46.7843 49.2643 38.5C49.2643 30.2157 43.8229 23.5 35.5755 23.5C27.328 23.5 21.2643 30.2157 21.2643 38.5C21.2643 46.7843 27.328 53.5 35.5755 53.5Z" fill="#F5F8FF"/>
<path d="M38.6357 61.5001H33.5357V60.5001H38.6357V61.5001Z" fill="#F5F8FF"/>
</svg>
