<svg width="72" height="72" viewBox="0 0 72 72" fill="none" xmlns="http://www.w3.org/2000/svg">
<path d="M36.0855 20.7V10.5H35.5855V20.7H36.0855Z" fill="#F5F8FF"/>
<path d="M52.842 15.6L46.2855 23.4137L45.9025 23.0923L52.4589 15.2786L52.842 15.6Z" fill="#F5F8FF"/>
<path d="M52.6605 32.175L61.494 27.075L61.244 26.642L52.4105 31.742L52.6605 32.175Z" fill="#F5F8FF"/>
<path d="M19.5105 41.1001H9.31046V40.6001H19.5105V41.1001Z" fill="#F5F8FF"/>
<path d="M62.8605 41.1001H52.6605V40.6001H62.8605V41.1001Z" fill="#F5F8FF"/>
<path d="M21.1048 47.475L11.8605 51.7857L11.6492 51.3326L20.8935 47.0219L21.1048 47.475Z" fill="#F5F8FF"/>
<path d="M16.389 59.1065L24.7444 53.2561L24.4576 52.8465L16.1023 58.697L16.389 59.1065Z" fill="#F5F8FF"/>
<path d="M24.6105 24.4335L19.5105 15.6L19.0775 15.85L24.1775 24.6835L24.6105 24.4335Z" fill="#F5F8FF"/>
<path d="M9.31048 27.075L18.8954 30.5636L18.7243 31.0335L9.13947 27.5449L9.31048 27.075Z" fill="#F5F8FF"/>
<path d="M60.9705 49.6887L51.3856 46.2L51.2146 46.6699L60.7995 50.1585L60.9705 49.6887Z" fill="#F5F8FF"/>
<path d="M47.5606 52.5751L57.1454 56.0637L56.9744 56.5335L47.3895 53.0449L47.5606 52.5751Z" fill="#F5F8FF"/>
<path fill-rule="evenodd" clip-rule="evenodd" d="M50.748 38.55C50.748 44.6238 48.1301 49.9345 43.7355 52.8209L43.7355 58.225C43.7355 59.3296 42.8401 60.225 41.7355 60.225H30.4355C29.3309 60.225 28.4355 59.3296 28.4355 58.225V55.2276L28.4277 55.2271L28.4355 55.1149V53.2753C23.3953 50.517 20.148 44.9582 20.148 38.55C20.148 29.3959 26.7747 21.975 35.788 21.975C44.8013 21.975 50.748 29.3959 50.748 38.55ZM41.2687 56.125H31.6699L42.4612 56.8796L42.4263 57.3784L29.4355 56.47V57.2437L42.4612 58.1546L42.4263 58.6534L29.4355 57.745V58.225C29.4355 58.4931 29.541 58.7366 29.7128 58.9162L29.7453 58.4512L40.8106 59.225H41.7355C42.2878 59.225 42.7355 58.7773 42.7355 58.225V56.125H42.4241L42.4185 56.2054L41.2687 56.125ZM33.6428 59.225L29.7496 58.9528C29.9287 59.1215 30.17 59.225 30.4355 59.225H33.6428ZM35.5753 53.5C43.8227 53.5 49.2642 46.7843 49.2642 38.5C49.2642 30.2157 43.8227 23.5 35.5753 23.5C27.3278 23.5 21.2642 30.2157 21.2642 38.5C21.2642 46.7843 27.3278 53.5 35.5753 53.5Z" fill="#F5F8FF"/>
<path d="M38.6355 61.5001H33.5355V60.5001H38.6355V61.5001Z" fill="#F5F8FF"/>
</svg>
