<svg width="37" height="30" viewBox="0 0 37 30" fill="none" xmlns="http://www.w3.org/2000/svg">
<path d="M19 27.75C19 28.1642 18.6642 28.5 18.25 28.5C17.8358 28.5 17.5 28.1642 17.5 27.75C17.5 27.3358 17.8358 27 18.25 27C18.6642 27 19 27.3358 19 27.75Z" fill="#C1D1EF"/>
<path d="M15.25 3H21.25V2.25H15.25V3Z" fill="#C1D1EF"/>
<path fill-rule="evenodd" clip-rule="evenodd" d="M9.25 1.5C9.25 0.671573 9.92157 0 10.75 0H26.5C27.3284 0 28 0.671573 28 1.5V28.5C28 29.3284 27.3284 30 26.5 30H10.75C9.92157 30 9.25 29.3284 9.25 28.5V1.5ZM10.75 0.75H26.5C26.9142 0.75 27.25 1.08579 27.25 1.5V28.5C27.25 28.9142 26.9142 29.25 26.5 29.25H10.75C10.3358 29.25 10 28.9142 10 28.5V1.5C10 1.08579 10.3358 0.75 10.75 0.75Z" fill="#C1D1EF"/>
<path d="M0.25 15.0701C0.25 9.83082 1.17221 4.93062 2.775 0.75L3.35696 1.33197C1.86304 5.34972 1 10.0435 1 15.0701C1 20.2149 1.9041 25.0111 3.46338 29.0906L2.88375 29.6702C1.214 25.4291 0.25 20.4269 0.25 15.0701Z" fill="#C1D1EF"/>
<path d="M5.27746 3.25246C3.98928 6.71541 3.25 10.7555 3.25 15.0701C3.25 19.5024 4.03016 23.6451 5.38408 27.1699L5.96613 26.5878C4.72102 23.2255 4 19.2895 4 15.0701C4 10.9694 4.68105 7.13627 5.86237 3.83737L5.27746 3.25246Z" fill="#C1D1EF"/>
<path d="M7.78283 5.75784C6.80757 8.5015 6.25 11.6808 6.25 15.0701C6.25 18.5776 6.8471 21.8601 7.8863 24.6677L8.47206 24.0819C7.53914 21.4382 7 18.3632 7 15.0701C7 11.8963 7.5008 8.92505 8.37227 6.34728L7.78283 5.75784Z" fill="#C1D1EF"/>
<path d="M29.4672 5.75784C30.4424 8.5015 31 11.6808 31 15.0701C31 18.5776 30.4029 21.8601 29.3637 24.6677L28.7779 24.0819C29.7109 21.4382 30.25 18.3632 30.25 15.0701C30.25 11.8963 29.7492 8.92505 28.8777 6.34728L29.4672 5.75784Z" fill="#C1D1EF"/>
<path d="M34 15.0701C34 10.7555 33.2607 6.71541 31.9725 3.25246L31.3876 3.83737C32.569 7.13627 33.25 10.9694 33.25 15.0701C33.25 19.2895 32.529 23.2255 31.2839 26.5878L31.8659 27.1699C33.2198 23.6451 34 19.5024 34 15.0701Z" fill="#C1D1EF"/>
<path d="M34.475 0.75C36.0778 4.93062 37 9.83082 37 15.0701C37 20.4269 36.036 25.4291 34.3662 29.6702L33.7866 29.0906C35.3459 25.0111 36.25 20.2149 36.25 15.0701C36.25 10.0435 35.387 5.34972 33.893 1.33197L34.475 0.75Z" fill="#C1D1EF"/>
</svg>
