<svg width="72" height="72" viewBox="0 0 72 72" fill="none" xmlns="http://www.w3.org/2000/svg">
<path d="M37 53C37 53.5523 36.5523 54 36 54C35.4477 54 35 53.5523 35 53C35 52.4477 35.4477 52 36 52C36.5523 52 37 52.4477 37 53Z" fill="#C1D1EF"/>
<path d="M32 20H40V19H32V20Z" fill="#C1D1EF"/>
<path fill-rule="evenodd" clip-rule="evenodd" d="M24 18C24 16.8954 24.8954 16 26 16H47C48.1046 16 49 16.8954 49 18V54C49 55.1046 48.1046 56 47 56H26C24.8954 56 24 55.1046 24 54V18ZM26 17H47C47.5523 17 48 17.4477 48 18V54C48 54.5523 47.5523 55 47 55H26C25.4477 55 25 54.5523 25 54V18C25 17.4477 25.4477 17 26 17Z" fill="#C1D1EF"/>
<path d="M12 36.0935C12 29.1078 13.2296 22.5742 15.3667 17L16.1426 17.776C14.1507 23.133 13 29.3914 13 36.0935C13 42.9532 14.2055 49.3481 16.2845 54.7874L15.5117 55.5603C13.2853 49.9054 12 43.2358 12 36.0935Z" fill="#C1D1EF"/>
<path d="M18.7033 20.3366C16.9857 24.9539 16 30.3407 16 36.0935C16 42.0032 17.0402 47.5267 18.8454 52.2265L19.6215 51.4504C17.9614 46.9674 17 41.7194 17 36.0935C17 30.6258 17.9081 25.515 19.4832 21.1165L18.7033 20.3366Z" fill="#C1D1EF"/>
<path d="M22.0438 23.6771C20.7434 27.3353 20 31.5744 20 36.0935C20 40.7701 20.7961 45.1468 22.1817 48.8902L22.9628 48.1092C21.7189 44.5843 21 40.4843 21 36.0935C21 31.8618 21.6677 27.9001 22.8297 24.463L22.0438 23.6771Z" fill="#C1D1EF"/>
<path d="M50.9562 23.6771C52.2566 27.3353 53 31.5744 53 36.0935C53 40.7701 52.2039 45.1468 50.8183 48.8902L50.0373 48.1092C51.2812 44.5843 52 40.4843 52 36.0935C52 31.8618 51.3323 27.9001 50.1703 24.463L50.9562 23.6771Z" fill="#C1D1EF"/>
<path d="M57 36.0935C57 30.3407 56.0143 24.9539 54.2967 20.3366L53.5168 21.1165C55.0919 25.515 56 30.6258 56 36.0935C56 41.7194 55.0386 46.9674 53.3785 51.4504L54.1546 52.2265C55.9598 47.5267 57 42.0032 57 36.0935Z" fill="#C1D1EF"/>
<path d="M57.6333 17C59.7704 22.5742 61 29.1078 61 36.0935C61 43.2358 59.7147 49.9054 57.4883 55.5603L56.7155 54.7874C58.7945 49.3481 60 42.9532 60 36.0935C60 29.3914 58.8493 23.133 56.8574 17.776L57.6333 17Z" fill="#C1D1EF"/>
</svg>
