<svg width="36" height="36" viewBox="0 0 36 36" fill="none" xmlns="http://www.w3.org/2000/svg">
<path d="M17.5833 17V16.8274M17.5833 16.8274V11.1667M17.5833 16.8274L17.4613 16.7054M17.5833 16.8274L22.4613 21.7054M26.7753 6.43294C27.1364 6.05419 27.7346 6.0166 28.1411 6.3577C28.5476 6.69879 28.6145 7.29447 28.3042 7.71589L28.5602 7.93067C29.4063 8.64067 29.5167 9.90218 28.8067 10.7483L28.3623 11.278C27.6586 10.1561 26.7702 9.1236 25.7011 8.22651C24.9102 7.5628 24.0634 7.00939 23.1794 6.56462L23.4444 6.24882C24.1544 5.40267 25.4159 5.2923 26.2621 6.0023L26.7753 6.43294ZM7.6399 7.58409C7.30097 7.18534 7.32612 6.58645 7.70784 6.21783C8.08956 5.8492 8.68896 5.84497 9.07564 6.1976L9.316 5.9655C10.1106 5.1982 11.3767 5.2203 12.144 6.01486L12.6243 6.5122C11.435 7.09473 10.3153 7.87033 9.31137 8.83981C8.56862 9.55707 7.92972 10.3414 7.39499 11.174L7.10862 10.8775C6.34132 10.0829 6.36342 8.81677 7.15798 8.04947L7.6399 7.58409ZM28 17C28 22.5229 23.5228 27 18 27C12.4772 27 8 22.5229 8 17C8 11.4772 12.4772 7.00001 18 7.00001C23.5228 7.00001 28 11.4772 28 17Z" stroke="#C1D1EF"/>
</svg>
