<svg width="88" height="83" viewBox="0 0 88 83" fill="none" xmlns="http://www.w3.org/2000/svg">
<path d="M42.7864 44.4558V43.8165M42.7864 43.8165V22.8467M42.7864 43.8165L42.3343 43.3644M42.7864 43.8165L60.8564 61.8865M76.8371 5.31097C78.1749 3.90791 80.3911 3.76868 81.8969 5.03225C83.4028 6.29581 83.6505 8.50244 82.5011 10.0636L83.4492 10.8592C86.5837 13.4893 86.9926 18.1625 84.3624 21.297L82.7161 23.259C80.1095 19.1032 76.8185 15.2783 72.8581 11.9551C69.928 9.49647 66.7911 7.44638 63.5165 5.79879L64.4982 4.62891C67.1283 1.49442 71.8015 1.08557 74.936 3.71572L76.8371 5.31097ZM5.95176 9.57531C4.69623 8.09816 4.78941 5.87964 6.20346 4.5141C7.61751 3.14857 9.83794 3.13288 11.2704 4.4392L12.1607 3.57937C15.1041 0.736978 19.7944 0.818848 22.6368 3.76223L24.416 5.60461C20.0105 7.76254 15.8625 10.6357 12.1436 14.227C9.39213 16.8841 7.02538 19.7895 5.04453 22.8739L3.98367 21.7754C1.14128 18.832 1.22314 14.1417 4.16653 11.2993L5.95176 9.57531ZM81.3741 44.4558C81.3741 64.9148 64.7888 81.5 44.3299 81.5C23.871 81.5 7.28573 64.9148 7.28573 44.4558C7.28573 23.9969 23.871 7.41165 44.3299 7.41165C64.7888 7.41165 81.3741 23.9969 81.3741 44.4558Z" stroke="#F5F8FF" stroke-width="2.5"/>
</svg>
