<svg width="24" height="26" viewBox="0 0 24 26" fill="none" xmlns="http://www.w3.org/2000/svg">
<path fill-rule="evenodd" clip-rule="evenodd" d="M10.3335 0.5V10.5H13.6668V0.5H10.3335ZM12.0002 22.1667C16.6025 22.1667 20.3335 18.4357 20.3335 13.8333C20.3335 10.4161 18.2767 7.47933 15.3335 6.19341V2.6498C20.1526 4.08405 23.6668 8.5483 23.6668 13.8333C23.6668 20.2767 18.4435 25.5 12.0002 25.5C5.55684 25.5 0.333496 20.2767 0.333496 13.8333C0.333496 8.5483 3.84768 4.08405 8.66683 2.6498V6.19341C5.72366 7.47933 3.66683 10.4161 3.66683 13.8333C3.66683 18.4357 7.39779 22.1667 12.0002 22.1667Z" fill="#C1D1EF"/>
</svg>
