<svg width="66" height="70" viewBox="0 0 66 70" fill="none" xmlns="http://www.w3.org/2000/svg">
<path fill-rule="evenodd" clip-rule="evenodd" d="M28.3571 0V28H37.6429V0H28.3571ZM33 60.6667C45.8209 60.6667 56.2143 50.22 56.2143 37.3333C56.2143 27.7652 50.4846 19.5421 42.2857 15.9415V6.01943C55.7105 10.0353 65.5 22.5352 65.5 37.3333C65.5 55.3746 50.9493 70 33 70C15.0507 70 0.5 55.3746 0.5 37.3333C0.5 22.5352 10.2895 10.0353 23.7143 6.01943V15.9415C15.5154 19.5421 9.78571 27.7652 9.78571 37.3333C9.78571 50.22 20.1791 60.6667 33 60.6667Z" fill="#C1D1EF"/>
</svg>
