<svg width="60" height="80" viewBox="0 0 60 80" fill="none" xmlns="http://www.w3.org/2000/svg">
<path fill-rule="evenodd" clip-rule="evenodd" d="M42.6316 37.8947C42.6316 44.8842 36.9895 50.5263 30.0001 50.5263C23.0106 50.5263 17.3685 44.8842 17.3685 37.8947V12.6316C17.3685 5.64211 23.0106 0 30.0001 0C36.9895 0 42.6316 5.64211 42.6316 12.6316V37.8947ZM30.0001 58.9474C41.6211 58.9474 51.0527 49.5158 51.0527 37.8947H59.4737C59.4737 52.7579 48.4843 64.9684 34.2106 67.0316V80H25.7895V67.0316C11.5158 64.9684 0.526367 52.7579 0.526367 37.8947H8.94742C8.94742 49.5158 18.379 58.9474 30.0001 58.9474Z" fill="#C1D1EF"/>
</svg>
